<svg id="Layer_1" data-name="Layer 1" xmlns="http://www.w3.org/2000/svg" viewBox="0 0 284 284"><defs><style>.cls-1{fill:#36445c;}.cls-2{fill:#009cc1;}</style></defs><circle class="cls-1" cx="142.82" cy="5.63" r="5.63" transform="translate(19.23 77.43) rotate(-32.41)"/><circle class="cls-1" cx="119.13" cy="7.56" r="5.63" transform="translate(-0.11 13.07) rotate(-6.28)"/><circle class="cls-1" cx="96.13" cy="13.57" r="5.63" transform="matrix(0.27, -0.96, 0.96, 0.27, 57.41, 102.61)"/><circle class="cls-1" cx="74.53" cy="23.49" r="5.63" transform="translate(29.39 87.28) rotate(-72.21)"/><circle class="cls-1" cx="54.98" cy="37.01" r="5.63" transform="translate(-2.11 3.35) rotate(-3.43)"/><circle class="cls-1" cx="38.07" cy="53.71" r="5.63" transform="translate(-17.97 19.16) rotate(-23.01)"/><circle class="cls-1" cx="24.31" cy="73.1" r="5.63" transform="translate(-2.5 0.88) rotate(-1.97)"/><circle class="cls-1" cx="14.14" cy="94.59" r="5.63"/><circle class="cls-1" cx="7.85" cy="117.51" r="5.63"/><circle class="cls-1" cx="5.63" cy="141.18" r="5.63" transform="translate(-44.38 9.03) rotate(-18.45)"/><circle class="cls-1" cx="7.56" cy="164.87" r="5.63" transform="translate(-18.89 1.96) rotate(-6.6)"/><path class="cls-1" d="M8.62,185.19a5.63,5.63,0,1,0,7.63-2.28A5.62,5.62,0,0,0,8.62,185.19Z"/><path class="cls-1" d="M18.14,207.7a5.64,5.64,0,1,0,7.12-3.58A5.65,5.65,0,0,0,18.14,207.7Z"/><path class="cls-1" d="M31.43,228.21a5.63,5.63,0,1,0,6.39-4.76A5.63,5.63,0,0,0,31.43,228.21Z"/><circle class="cls-1" cx="53.71" cy="245.93" r="5.63" transform="translate(-160.47 113.67) rotate(-45.98)"/><path class="cls-1" d="M67.59,260.83A5.63,5.63,0,1,0,72,254.17,5.63,5.63,0,0,0,67.59,260.83Z"/><circle class="cls-1" cx="94.59" cy="269.86" r="5.63"/><circle class="cls-1" cx="117.51" cy="276.15" r="5.63" transform="translate(-178.09 328.01) rotate(-76.9)"/><circle class="cls-1" cx="141.18" cy="278.37" r="5.63" transform="translate(-151.9 171) rotate(-42.99)"/><circle class="cls-1" cx="164.87" cy="276.44" r="5.63" transform="translate(-31.41 21.34) rotate(-6.76)"/><circle class="cls-1" cx="187.87" cy="270.43" r="5.63" transform="translate(-53.3 46.23) rotate(-12.3)"/><circle class="cls-1" cx="209.47" cy="260.51" r="5.63" transform="translate(-119.72 318.61) rotate(-61.21)"/><path class="cls-1" d="M228.21,252.57a5.63,5.63,0,1,0-4.76-6.39A5.63,5.63,0,0,0,228.21,252.57Z"/><path class="cls-1" d="M246.1,235.92a5.63,5.63,0,1,0-5.79-5.47A5.63,5.63,0,0,0,246.1,235.92Z"/><circle class="cls-1" cx="259.69" cy="210.9" r="5.63" transform="translate(-70.92 262.01) rotate(-47.87)"/><circle class="cls-1" cx="269.86" cy="189.41" r="5.63" transform="translate(-12.05 360.38) rotate(-66.3)"/><circle class="cls-1" cx="276.15" cy="166.49" r="5.63" transform="translate(108.69 442.06) rotate(-89.8)"/><path class="cls-1" d="M282.11,147a5.63,5.63,0,1,0-7.95-.46A5.62,5.62,0,0,0,282.11,147Z"/><circle class="cls-1" cx="276.44" cy="119.13" r="5.63" transform="translate(-11.86 32.55) rotate(-6.6)"/><circle class="cls-1" cx="270.43" cy="96.13" r="5.63" transform="translate(-13.66 55.33) rotate(-11.4)"/><path class="cls-1" d="M265.86,76.3a5.64,5.64,0,1,0-7.12,3.58A5.65,5.65,0,0,0,265.86,76.3Z"/><circle class="cls-1" cx="246.99" cy="54.98" r="5.63" transform="translate(16.96 160.39) rotate(-37.17)"/><circle class="cls-1" cx="230.29" cy="38.07" r="5.63" transform="translate(-3.09 33.9) rotate(-8.36)"/><path class="cls-1" d="M216.41,23.17A5.63,5.63,0,1,0,212,29.83,5.63,5.63,0,0,0,216.41,23.17Z"/><circle class="cls-1" cx="189.41" cy="14.14" r="5.63" transform="translate(102.53 183.04) rotate(-67.05)"/><circle class="cls-1" cx="166.49" cy="7.85" r="5.63" transform="translate(158.05 174.31) rotate(-89.79)"/><path class="cls-2" d="M160.87,17.43a8.07,8.07,0,1,0-.66,11.4A8.08,8.08,0,0,0,160.87,17.43Z"/><circle class="cls-2" cx="129.77" cy="22.73" r="8.08" transform="translate(-1.93 19.43) rotate(-8.5)"/><circle class="cls-2" cx="105.24" cy="27.88" r="8.08" transform="translate(62.15 127.86) rotate(-81.52)"/><circle class="cls-2" cx="82.32" cy="38.02" r="8.08"/><circle class="cls-2" cx="62.01" cy="52.7" r="8.08" transform="matrix(0.98, -0.18, 0.18, 0.98, -8.41, 11.91)"/><circle class="cls-2" cx="45.19" cy="71.28" r="8.08" transform="translate(-33.47 40.7) rotate(-36.38)"/><circle class="cls-2" cx="32.6" cy="92.95" r="8.08" transform="translate(-14.12 6.23) rotate(-8.99)"/><circle class="cls-2" cx="24.79" cy="116.77" r="8.08"/><circle class="cls-2" cx="22.11" cy="141.69" r="8.08"/><circle class="cls-2" cx="24.66" cy="166.63" r="8.08"/><path class="cls-2" d="M24.68,187.94a8.07,8.07,0,1,0,10.21-5.12A8.08,8.08,0,0,0,24.68,187.94Z"/><circle class="cls-2" cx="44.82" cy="212.22" r="8.08" transform="translate(-171.23 193.08) rotate(-73.01)"/><circle class="cls-2" cx="61.55" cy="230.89" r="8.08" transform="matrix(0.34, -0.94, 0.94, 0.34, -176.52, 210.3)"/><circle class="cls-2" cx="81.79" cy="245.68" r="8.08"/><circle class="cls-2" cx="104.66" cy="255.93" r="8.08" transform="matrix(0.17, -0.99, 0.99, 0.17, -165.09, 316.65)"/><circle class="cls-2" cx="129.16" cy="261.2" r="8.08" transform="translate(-139.03 375.15) rotate(-86.71)"/><path class="cls-2" d="M149.44,267.77a8.08,8.08,0,1,0-1.72-11.29A8.07,8.07,0,0,0,149.44,267.77Z"/><circle class="cls-2" cx="178.76" cy="256.12" r="8.08" transform="translate(-129.94 303.64) rotate(-63.84)"/><circle class="cls-2" cx="201.68" cy="245.98" r="8.08" transform="translate(-31.07 29.16) rotate(-7.68)"/><path class="cls-2" d="M222,239.38a8.08,8.08,0,1,0-8-8.12A8.07,8.07,0,0,0,222,239.38Z"/><circle class="cls-2" cx="238.81" cy="212.72" r="8.08" transform="translate(-80.74 199.72) rotate(-39.36)"/><circle class="cls-2" cx="251.4" cy="191.05" r="8.08" transform="translate(-18.56 354.82) rotate(-68.48)"/><circle class="cls-2" cx="259.21" cy="167.23" r="8.08" transform="translate(56 399.31) rotate(-81.62)"/><circle class="cls-2" cx="261.89" cy="142.31" r="8.08" transform="matrix(0.83, -0.56, 0.56, 0.83, -34.75, 171.32)"/><circle class="cls-2" cx="259.34" cy="117.37" r="8.08" transform="translate(85.62 342.89) rotate(-76.74)"/><circle class="cls-2" cx="251.65" cy="93.52" r="8.08" transform="translate(138.03 336.75) rotate(-85.35)"/><circle class="cls-2" cx="239.18" cy="71.78" r="8.08" transform="translate(-9.37 95.9) rotate(-22.25)"/><circle class="cls-2" cx="222.45" cy="53.11" r="8.08" transform="translate(-5.91 40.6) rotate(-10.29)"/><circle class="cls-2" cx="202.21" cy="38.32" r="8.08" transform="translate(74.45 199.68) rotate(-62.36)"/><circle class="cls-2" cx="179.34" cy="28.07" r="8.08" transform="translate(104.63 193.51) rotate(-74.59)"/><circle class="cls-1" cx="142.73" cy="42.59" r="9.46" transform="matrix(0.07, -1, 1, 0.07, 90.6, 182.12)"/><circle class="cls-1" cx="116.98" cy="45.79" r="9.46"/><circle class="cls-1" cx="92.93" cy="55.55" r="9.46" transform="translate(-13.21 34.19) rotate(-19.49)"/><path class="cls-1" d="M73.05,61.77A9.46,9.46,0,1,0,81.65,72,9.46,9.46,0,0,0,73.05,61.77Z"/><circle class="cls-1" cx="56.28" cy="91.66" r="9.46" transform="translate(-38.44 142.64) rotate(-86.74)"/><circle class="cls-1" cx="46.17" cy="115.56" r="9.46" transform="translate(-78.23 118.86) rotate(-69.74)"/><path class="cls-1" d="M36.52,134a9.45,9.45,0,1,0,13.32,1.17A9.46,9.46,0,0,0,36.52,134Z"/><circle class="cls-1" cx="45.79" cy="167.02" r="9.46" transform="translate(-68.22 36.66) rotate(-25.84)"/><circle class="cls-1" cx="55.55" cy="191.07" r="9.46" transform="translate(-74.6 40.56) rotate(-24.64)"/><circle class="cls-1" cx="71.19" cy="211.77" r="9.46" transform="translate(-143.54 273.48) rotate(-87.45)"/><circle class="cls-1" cx="91.66" cy="227.72" r="9.46" transform="translate(-153.77 223.13) rotate(-67)"/><circle class="cls-1" cx="115.56" cy="237.83" r="9.46" transform="translate(-139.27 308.37) rotate(-79.56)"/><path class="cls-1" d="M134,247.48a9.45,9.45,0,1,0,1.17-13.32A9.46,9.46,0,0,0,134,247.48Z"/><circle class="cls-1" cx="167.02" cy="238.21" r="9.46" transform="translate(-88.72 99.51) rotate(-26.49)"/><circle class="cls-1" cx="191.07" cy="228.45" r="9.46" transform="translate(-79.6 104.22) rotate(-25.44)"/><circle class="cls-1" cx="211.77" cy="212.81" r="9.46" transform="translate(-79.49 139.98) rotate(-31.1)"/><circle class="cls-1" cx="227.72" cy="192.34" r="9.46" transform="translate(-60.16 269.65) rotate(-55.22)"/><circle class="cls-1" cx="237.83" cy="168.44" r="9.46"/><circle class="cls-1" cx="241.41" cy="142.73" r="9.46" transform="translate(78.67 371.13) rotate(-85.12)"/><circle class="cls-1" cx="238.21" cy="116.98" r="9.46"/><circle class="cls-1" cx="228.45" cy="92.93" r="9.46" transform="translate(-17.81 106.35) rotate(-25.25)"/><circle class="cls-1" cx="212.81" cy="72.23" r="9.46" transform="matrix(0.95, -0.3, 0.3, 0.95, -11.85, 66.53)"/><circle class="cls-1" cx="192.34" cy="56.28" r="9.46" transform="translate(29.99 173.77) rotate(-52.2)"/><circle class="cls-1" cx="168.44" cy="46.17" r="9.46" transform="translate(87.13 200.74) rotate(-77.58)"/><circle class="cls-2" cx="201.16" cy="93.99" r="11.16"/><circle class="cls-2" cx="181.18" cy="76.65" r="11.16" transform="matrix(0.83, -0.56, 0.56, 0.83, -11.71, 115.34)"/><circle class="cls-2" cx="156.46" cy="67.2" r="11.16" transform="translate(75.79 217.15) rotate(-84.96)"/><circle class="cls-2" cx="130.01" cy="66.76" r="11.16" transform="translate(20.28 163.29) rotate(-68.52)"/><circle class="cls-2" cx="105" cy="75.4" r="11.16"/><circle class="cls-2" cx="84.45" cy="92.07" r="11.16" transform="translate(-37.98 116.98) rotate(-58.97)"/><circle class="cls-2" cx="70.84" cy="114.77" r="11.16" transform="translate(-10.2 6.96) rotate(-5.25)"/><circle class="cls-2" cx="65.82" cy="140.75" r="11.16" transform="translate(-10.51 5.41) rotate(-4.36)"/><circle class="cls-2" cx="69.99" cy="166.88" r="11.16" transform="translate(-29.7 15.85) rotate(-10.68)"/><circle class="cls-2" cx="82.84" cy="190.01" r="11.16"/><circle class="cls-2" cx="102.82" cy="207.35" r="11.16" transform="matrix(0.01, -1, 1, 0.01, -105.81, 307.54)"/><circle class="cls-2" cx="127.54" cy="216.8" r="11.16" transform="translate(-98.37 106.19) rotate(-33.44)"/><circle class="cls-2" cx="153.99" cy="217.24" r="11.16" transform="translate(-88.12 328.08) rotate(-79.27)"/><circle class="cls-2" cx="179" cy="208.6" r="11.16" transform="translate(-80.45 299.38) rotate(-68.65)"/><circle class="cls-2" cx="199.55" cy="191.93" r="11.16"/><circle class="cls-2" cx="213.16" cy="169.23" r="11.16" transform="translate(4.05 343.45) rotate(-78.25)"/><circle class="cls-2" cx="218.18" cy="143.25" r="11.16" transform="translate(72.72 359.97) rotate(-89.42)"/><circle class="cls-2" cx="214.01" cy="117.12" r="11.16" transform="translate(-7.2 220) rotate(-53.63)"/></svg>